/* XPM */
static char * bottom_left_active_xpm[] = {
"4 3 2 1",
"      c #282828",
".     c #7c6f64",
" .. ",
" ...",
"    "};
