/* XPM */
static char * left_active_xpm[] = {
"3 1 2 1",
" 	c #282828",
".	c #504945",
" . "};
