/* XPM */
static char * title_3_inactive_xpm[] = {
"1 39 2 1",
"      c #282828",
".     c #7c6f64",
" ",
".",
".",
".",
".",
".",
".",
".",
".",
".",
".",
".",
".",
".",
".",
".",
".",
".",
".",
".",
".",
".",
".",
".",
".",
".",
".",
".",
".",
".",
".",
".",
".",
".",
".",
".",
".",
".",
" "};
