/* XPM */
static char * top_left_active_xpm[] = {
"4 39 2 1",
"      c #282828",
".     c #7c6f64",
"    ",
" ...",
" ...",
" ...",
" ...",
" ...",
" ...",
" ...",
" ...",
" ...",
" ...",
" ...",
" ...",
" ...",
" ...",
" ...",
" ...",
" ...",
" ...",
" ...",
" ...",
" ...",
" ...",
" ...",
" ...",
" ...",
" ...",
" ...",
" ...",
" ...",
" ...",
" ...",
" ...",
" ...",
" ...",
" ...",
" ...",
" ...",
" .  "};
