/* XPM */
static char * top_left_active_xpm[] = {
"3 31 2 1",
"      c #282828",
".     c #7c6f64",
"   ",
" ..",
" ..",
" ..",
" ..",
" ..",
" ..",
" ..",
" ..",
" ..",
" ..",
" ..",
" ..",
" ..",
" ..",
" ..",
" ..",
" ..",
" ..",
" ..",
" ..",
" ..",
" ..",
" ..",
" ..",
" ..",
" ..",
" ..",
" ..",
" ..",
" . "};
