/* XPM */
static char * top_right_inactive_xpm[] = {
"3 27 2 1",
" 	c #282828",
".	c #504945",
"   ",
".. ",
".. ",
".. ",
".. ",
".. ",
".. ",
".. ",
".. ",
".. ",
".. ",
".. ",
".. ",
".. ",
".. ",
".. ",
".. ",
".. ",
".. ",
".. ",
".. ",
".. ",
".. ",
".. ",
".. ",
".. ",
" . "};
