/* XPM */
static char * top_right_inactive_xpm[] = {
"3 19 2 1",
"      c #282828",
".     c #7c6f64",
"   ",
".. ",
".. ",
".. ",
".. ",
".. ",
".. ",
".. ",
".. ",
".. ",
".. ",
".. ",
".. ",
".. ",
".. ",
".. ",
".. ",
".. ",
" . "};
