/* XPM */
static char * top_right_active_xpm[] = {
"3 38 2 1",
" 	c #1883d7",
".	c #ffffff",
"   ",
".. ",
".. ",
".. ",
".. ",
".. ",
".. ",
".. ",
".. ",
".. ",
".. ",
".. ",
".. ",
".. ",
".. ",
".. ",
".. ",
".. ",
".. ",
".. ",
".. ",
".. ",
".. ",
".. ",
".. ",
".. ",
".. ",
".. ",
".. ",
".. ",
".. ",
".. ",
".. ",
".. ",
".. ",
".. ",
".. ",
".. "};
