/* XPM */
static char * top_left_inactive_xpm[] = {
"4 27 2 1",
"      c #282828",
".     c #7c6f64",
"    ",
" ...",
" ...",
" ...",
" ...",
" ...",
" ...",
" ...",
" ...",
" ...",
" ...",
" ...",
" ...",
" ...",
" ...",
" ...",
" ...",
" ...",
" ...",
" ...",
" ...",
" ...",
" ...",
" ...",
" ...",
" ...",
" .. "};
